<?xml version="1.0" standalone="no"?><svg xmlns="http://www.w3.org/2000/svg" viewBox="0 0 1440 320"><path fill="#fff" fill-opacity="1" d="M0,96L20,80C40,64,80,32,120,48C160,64,200,128,240,138.7C280,149,320,107,360,128C400,149,440,235,480,250.7C520,267,560,213,600,197.3C640,181,680,203,720,192C760,181,800,139,840,128C880,117,920,139,960,165.3C1000,192,1040,224,1080,224C1120,224,1160,192,1200,181.3C1240,171,1280,181,1320,160C1360,139,1400,85,1420,58.7L1440,32L1440,320L1420,320C1400,320,1360,320,1320,320C1280,320,1240,320,1200,320C1160,320,1120,320,1080,320C1040,320,1000,320,960,320C920,320,880,320,840,320C800,320,760,320,720,320C680,320,640,320,600,320C560,320,520,320,480,320C440,320,400,320,360,320C320,320,280,320,240,320C200,320,160,320,120,320C80,320,40,320,20,320L0,320Z"></path></svg>